<svg version="1.1" xmlns="http://www.w3.org/2000/svg" xmlns:xlink="http://www.w3.org/1999/xlink" width="59.2232" height="77.44444" viewBox="0,0,59.2232,77.44444"><g transform="translate(-209.83235,-136.3889)"><g data-paper-data="{&quot;isPaintingLayer&quot;:true}" fill-rule="nonzero" stroke="#000000" stroke-width="2" stroke-linecap="butt" stroke-linejoin="miter" stroke-miterlimit="10" stroke-dasharray="" stroke-dashoffset="0" style="mix-blend-mode: normal"><path d="M211.83333,178.91504c-0.70302,-0.8252 -0.66667,-2.31373 -0.66667,-2.31373l-0.33333,-36.55556c0,0 -0.06618,-1.84472 0.88889,-2.65686c0.95507,-0.81214 2.88889,-0.55556 2.88889,-0.55556h50.66667c0,0 1.55512,-0.27504 2.66667,0.55556c1.11155,0.8306 0.88889,2.1013 0.88889,2.1013v35.44444c0,0 0.17316,1.70951 -0.77778,3.20261c-0.95094,1.49311 -2.11111,1.33333 -2.11111,1.33333h-52.33333c0,0 -1.07476,0.26965 -1.77778,-0.55556z" fill="#00ff1b"/><path d="M230.38889,212.83334v-33h20.33333v33z" fill="#ab3434"/></g></g></svg>